<svg width="325" height="325" viewBox="0 0 325 325" fill="none" xmlns="http://www.w3.org/2000/svg">
<path d="M200.071 91.7267C240.236 131.265 246.485 167.775 237.756 204.851C226.552 243.461 210.623 259.457 187.957 277.214C257.301 266.517 310.791 176.006 264.181 101.669C247.49 94.1986 226.099 88.8147 200.071 91.7267Z" fill="#06A3E8"/>
<path d="M202.192 231.579C147.174 243.804 113.131 229.206 86.7541 201.727C60.434 171.337 55.6648 149.273 53.0778 120.596C24.3685 184.617 71.2715 278.711 159.003 279.989C174.345 270.039 190.49 255.01 202.192 231.579Z" fill="#DC232B"/>
<path d="M83.4859 161.981C99.8642 108.053 129.302 85.5716 166.194 76.0948C205.594 68.0976 227.156 74.7821 253.405 86.6156C211.743 30.1599 106.745 24.7928 62.5353 100.582C63.6655 118.833 68.8255 140.278 83.4859 161.981Z" fill="#2D3082"/>
</svg>
