<svg width="100" height="78" viewBox="0 0 100 78" fill="none" xmlns="http://www.w3.org/2000/svg">
<path d="M79.5621 1.23707L4.18748 23.5032C1.87521 24.1863 0.499576 26.4314 1.11559 28.5167L14.5027 73.8343C15.1187 75.9196 17.4935 77.0568 19.8058 76.3738L95.1804 54.1076C97.4927 53.4246 98.8683 51.1795 98.2523 49.0941L84.8652 3.77653C84.2492 1.69121 81.8744 0.554009 79.5621 1.23707ZM33.3462 52.8549L33.9082 54.7573C34.0623 55.2789 33.7186 55.8398 33.1402 56.0106L31.0465 56.6291C30.4681 56.8 29.8748 56.5159 29.7207 55.9943L29.1528 54.0718C27.6552 54.4398 26.081 54.3993 24.6521 53.945C24.0396 53.75 23.8098 53.0685 24.1542 52.5343L25.301 50.7572C25.5715 50.3385 26.1064 50.1651 26.6012 50.2794C27.192 50.4154 27.8118 50.3991 28.4085 50.2229L32.0869 49.1362C32.9375 48.885 33.4247 47.9814 33.1712 47.1235C32.9638 46.4213 32.3087 45.9424 31.5798 45.9602L25.2205 46.1065C22.5933 46.1666 20.2715 44.5634 19.5753 42.2066C18.7205 39.3129 20.5189 36.2256 23.5878 35.2382L23.0258 33.3358C22.8717 32.8142 23.2154 32.2533 23.7938 32.0825L25.8875 31.464C26.4659 31.2931 27.0592 31.5772 27.2133 32.0988L27.7812 34.0213C29.2788 33.6533 30.8527 33.6927 32.2819 34.1481C32.8944 34.3431 33.1242 35.0246 32.7798 35.5588L31.633 37.3359C31.3625 37.7546 30.8276 37.928 30.3328 37.8137C29.7417 37.6765 29.1222 37.694 28.5255 37.8702L24.8471 38.9569C23.9965 39.2081 23.5093 40.1117 23.7628 40.9696C23.9702 41.6718 24.6253 42.1507 25.3542 42.1329L31.7135 41.9866C34.3407 41.9265 36.6625 43.5297 37.3587 45.8865C38.2139 48.7814 36.4151 51.8674 33.3462 52.8549ZM64.1987 41.7032C64.3528 42.2248 64.0091 42.7857 63.4307 42.9566L48.7745 47.2861C48.1961 47.457 47.6029 47.1729 47.4488 46.6513L46.891 44.763C46.7369 44.2414 47.0805 43.6805 47.6589 43.5097L62.3151 39.1801C62.8935 39.0093 63.4868 39.2934 63.6409 39.815L64.1987 41.7032ZM85.1361 35.5182C85.2902 36.0398 84.9465 36.6007 84.3681 36.7715L73.8994 39.8641C73.321 40.0349 72.7277 39.7508 72.5737 39.2292L72.0159 37.341C71.8618 36.8193 72.2054 36.2585 72.7838 36.0876L83.2525 32.9951C83.8309 32.8242 84.4242 33.1083 84.5783 33.6299L85.1361 35.5182ZM81.7893 24.1888C81.9434 24.7104 81.5997 25.2713 81.0213 25.4421L45.4278 35.9567C44.8494 36.1276 44.2561 35.8435 44.102 35.3218L43.5442 33.4336C43.3901 32.912 43.7338 32.3511 44.3122 32.1802L79.9058 21.6657C80.4841 21.4948 81.0774 21.7789 81.2315 22.3005L81.7893 24.1888Z" fill="#06A3E8"/>
</svg>
