<svg width="147" height="139" viewBox="0 0 147 139" fill="none" xmlns="http://www.w3.org/2000/svg">
<path d="M27.7306 118.1L30.6521 126.384C33.0673 133.233 53.8295 132.171 76.9997 124C100.17 115.828 117.005 103.631 114.59 96.7822L111.668 88.4982C104.631 97.3275 89.0586 105.786 72.6209 111.583C56.1831 117.38 38.7492 120.562 27.7306 118.1ZM78.7057 39.6339C101.876 31.4625 118.711 19.2649 116.296 12.4164C113.88 5.56801 93.1182 6.62967 69.9479 14.8011C46.7777 22.9725 29.9428 35.1701 32.358 42.0185C34.7733 48.8669 55.5354 47.8053 78.7057 39.6339ZM20.5533 97.749L24.0838 107.76C26.499 114.608 47.2612 113.546 70.4314 105.375C93.6017 97.2037 110.437 85.006 108.021 78.1576L104.491 68.1469C97.7895 77.9269 82.4685 87.1693 66.0525 92.9587C49.6366 98.748 31.9073 101.161 20.5533 97.749ZM112.238 67.8141C124.004 61.2435 131.054 54.2636 129.432 49.6657L126.511 41.3816C122.562 46.3517 115.874 51.1533 107.887 55.4753L112.238 67.8141ZM52.9159 55.7094C29.7457 63.8809 13.3966 77.4559 16.4208 86.031C19.4449 94.6061 40.6929 94.9219 63.8631 86.7505C87.0334 78.579 103.382 65.004 100.358 56.4289C97.3341 47.8538 76.0862 47.538 52.9159 55.7094ZM104.704 49.7264C117.08 43.0058 124.526 35.7554 122.864 31.041L119.942 22.757C113.9 30.3632 101.49 37.6847 87.6753 43.2546C95.102 43.7548 101.159 45.8069 104.704 49.7264Z" fill="#353892"/>
</svg>
