<svg width="99" height="89" viewBox="0 0 99 89" fill="none" xmlns="http://www.w3.org/2000/svg">
<path d="M86.5398 52.8963L82.6163 51.5483C82.2836 48.708 81.3226 45.9652 79.8411 43.439L85.5171 35.0983L81.2612 33.636C77.351 32.2926 73.3275 32.7504 70.1155 34.4819C69.1508 34.0005 68.2036 33.5115 67.1529 33.1505L50.1289 27.3016C39.8347 23.7648 28.9526 27.5226 23.9132 35.7413L18.1676 33.7673C16.1992 33.091 15.2086 30.9105 16.2484 29.1824C17.0185 27.8931 18.7683 27.4311 20.3111 27.9612L20.4441 28.0069C20.883 28.1577 21.3552 27.9519 21.4934 27.5496L22.3312 25.1114C22.4694 24.709 22.2234 24.2565 21.7845 24.1057C17.994 22.8034 13.7613 24.1298 12.1014 27.4032C10.0837 31.3715 12.3984 36.1468 16.8273 37.6684L22.1473 39.4962C19.9609 45.86 21.4165 52.6164 25.3273 57.94L21.9471 67.7783C21.5785 68.8511 22.2345 70.0579 23.4049 70.46L31.9169 73.3845C33.0873 73.7866 34.3465 73.2378 34.7151 72.165L36.7256 66.3133L53.7495 72.1622L51.739 78.014C51.3704 79.0868 52.0265 80.2936 53.1969 80.6957L61.7088 83.6202C62.8792 84.0223 64.1384 83.4735 64.507 82.4007L67.8872 72.5624C69.8293 72.0166 71.6656 71.2163 73.3611 70.1768L79.8381 72.4022C81.0085 72.8043 82.2677 72.2555 82.6363 71.1827L87.9976 55.578C88.3662 54.5052 87.7102 53.2984 86.5398 52.8963ZM66.8352 54.8497C65.6648 54.4476 65.0088 53.2408 65.3774 52.168C65.7459 51.0952 67.0051 50.5464 68.1755 50.9485C69.3459 51.3507 70.0019 52.5574 69.6333 53.6302C69.2647 54.7031 68.0056 55.2518 66.8352 54.8497ZM51.4692 23.4004L68.4932 29.2493C69.2114 29.4961 69.8995 29.787 70.5744 30.0734C70.5869 30.0368 70.6086 30.017 70.6212 29.9805C72.8411 23.5191 68.9232 16.3121 61.8742 13.8902C54.8252 11.4684 47.3052 14.7457 45.0853 21.207C44.9973 21.463 44.98 21.7297 44.9054 21.9903C47.0903 22.2094 49.288 22.651 51.4692 23.4004Z" fill="#06A3E8"/>
</svg>
