<svg width="93" height="58" viewBox="0 0 93 58" fill="none" xmlns="http://www.w3.org/2000/svg">
<path d="M90.2609 2.90777C84.6243 0.801384 78.9834 1.55714e-07 73.3453 1.55714e-07C55.4475 -0.00129449 37.5511 8.0708 19.6532 8.0708C15.1646 8.0708 10.6788 7.5633 6.19022 6.29455C5.68599 6.15214 5.18031 6.08482 4.68625 6.08482C2.18547 6.08482 0 7.80929 0 10.2031V51.2769C0 52.9121 1.05059 54.4617 2.73764 55.0909C8.37423 57.1986 14.0152 58 19.6532 58C37.5511 58 55.4489 49.9279 73.3468 49.9279C77.8354 49.9279 82.3211 50.4354 86.8098 51.7042C87.314 51.8466 87.8197 51.9139 88.3137 51.9139C90.8145 51.9139 93 50.1894 93 47.7956V6.72308C92.9985 5.08665 91.9479 3.53826 90.2609 2.90777ZM6.97489 12.9749C9.89853 13.6274 12.95 13.955 16.0887 14.131C15.2343 17.936 11.4795 20.8036 6.97489 20.8036V12.9749ZM6.97489 49.8722V43.6864C11.9692 43.6864 16.0103 47.2169 16.2326 51.6355C12.9588 51.4012 9.89853 50.8186 6.97489 49.8722ZM46.4993 41.4286C40.078 41.4286 34.8745 35.8629 34.8745 29C34.8745 22.1358 40.0795 16.5714 46.4993 16.5714C52.9191 16.5714 58.1241 22.1358 58.1241 29C58.1241 35.8655 52.9176 41.4286 46.4993 41.4286ZM86.0237 45.0251C83.4778 44.4567 80.8346 44.1383 78.1304 43.9324C78.9834 40.556 82.1264 37.9926 86.0237 37.5524V45.0251ZM86.0237 14.4573C81.535 13.9511 78.0519 10.6122 77.9139 6.48875C80.7532 6.76969 83.4488 7.29531 86.0237 8.12777V14.4573Z" fill="#353892"/>
</svg>
