<svg viewBox="0 0 40 40" fill="none" xmlns="http://www.w3.org/2000/svg">
    <circle cx="20" cy="20" r="20" fill="#00A7F0" fill-opacity="0.1"/>
    <path d="M20 30C14.4771 30 10 25.5228 10 20C10 14.4771 14.4771 10 20 10C25.5228 10 30 14.4771 30 20C30 25.5228 25.5228 30 20 30ZM20 28C24.4183 28 28 24.4183 28 20C28 15.5817 24.4183 12 20 12C15.5817 12 12 15.5817 12 20C12 24.4183 15.5817 28 20 28ZM19.0026 24L14.76 19.7574L16.1742 18.3431L19.0026 21.1716L24.6595 15.5147L26.0737 16.9289L19.0026 24Z" fill="#06A3E8"/>
</svg>
